<?xml version="1.0" encoding="UTF-8"?>
<svg version="1.1" xmlns="http://www.w3.org/2000/svg" width="332" height="238">
<path d="M0 0 C109.56 0 219.12 0 332 0 C332 78.54 332 157.08 332 238 C222.44 238 112.88 238 0 238 C0 159.46 0 80.92 0 0 Z " fill="#FEFEFE" transform="translate(0,0)"/>
<path d="M0 0 C9.4909136 -0.2603222 9.4909136 -0.2603222 14.16796875 3.15625 C15.37069694 5.56170638 15.26868347 7.10621953 15.23046875 9.78125 C15.22144531 10.59851563 15.21242188 11.41578125 15.203125 12.2578125 C15.19152344 12.88429687 15.17992187 13.51078125 15.16796875 14.15625 C16.03075439 14.13530273 16.89354004 14.11435547 17.7824707 14.09277344 C20.98604385 14.02457098 24.18924691 13.97443686 27.39331055 13.93652344 C28.77950213 13.91641725 30.165609 13.88912755 31.55151367 13.85449219 C33.54438781 13.80593775 35.53788264 13.78541028 37.53125 13.765625 C38.73048096 13.74467773 39.92971191 13.72373047 41.1652832 13.70214844 C44.16796875 14.15625 44.16796875 14.15625 46.02026367 15.99316406 C48.25029088 20.19610835 48.29541365 23.85215954 48.24609375 28.484375 C48.23947723 29.59972626 48.23947723 29.59972626 48.23272705 30.73760986 C48.2218609 32.35674886 48.20838344 33.97587192 48.19262695 35.5949707 C48.16756617 38.19806671 48.15084788 40.80113128 48.13476562 43.40429688 C48.10187142 47.97286766 48.03848671 52.54038915 47.96044922 57.10839844 C47.9318042 58.99501838 47.91081295 60.88176806 47.89697266 62.76855469 C47.87560293 65.53902119 47.82911144 68.30808045 47.77734375 71.078125 C47.77611511 71.91768738 47.77488647 72.75724976 47.77362061 73.62225342 C47.64568377 78.71947113 47.01573141 81.47281705 43.16796875 85.15625 C37.2728381 89.0863371 29.32522878 88.31164219 22.40698242 88.36499023 C21.58303986 88.37477402 20.75909729 88.3845578 19.91018677 88.39463806 C17.2187862 88.42424439 14.52743318 88.44586228 11.8359375 88.46484375 C10.44915519 88.47470149 10.44915519 88.47470149 9.03435707 88.48475838 C4.153861 88.51717625 -0.72661462 88.54168614 -5.60717773 88.5612793 C-9.64135041 88.57917953 -13.67483555 88.61416255 -17.70874023 88.66381836 C-22.59509021 88.72387137 -27.48079701 88.75473 -32.3674984 88.76445198 C-34.22592375 88.77301906 -36.08433125 88.79186804 -37.94254494 88.8211956 C-40.53514309 88.85996023 -43.12520025 88.86116733 -45.71801758 88.85327148 C-46.86745598 88.8832724 -46.86745598 88.8832724 -48.04011536 88.91387939 C-50.18464661 88.88450623 -50.18464661 88.88450623 -53.83203125 88.15625 C-57.4770791 84.25120453 -58.33512854 81.11683774 -58.36547852 75.86303711 C-58.38131485 74.63834213 -58.39715118 73.41364716 -58.41346741 72.15184021 C-58.40850754 70.84231888 -58.40354767 69.53279755 -58.3984375 68.18359375 C-58.40367791 66.81408771 -58.40995592 65.44458529 -58.41722107 64.0750885 C-58.42760013 61.21289005 -58.42309889 58.35118957 -58.40844727 55.48901367 C-58.391236 51.82790304 -58.41479332 48.16835848 -58.44993687 44.50742245 C-58.47193145 41.68227313 -58.47046516 38.85749772 -58.46217155 36.03228951 C-58.46095727 34.02872241 -58.48086118 32.02517836 -58.50111389 30.02171326 C-58.39756723 19.92951229 -58.39756723 19.92951229 -55.41772461 16.85375977 C-51.53742976 14.30634308 -49.58807036 14.03607505 -44.94921875 14.05859375 C-43.78261719 14.06181641 -42.61601563 14.06503906 -41.4140625 14.06835938 C-40.19074219 14.07673828 -38.96742187 14.08511719 -37.70703125 14.09375 C-36.47597656 14.09826172 -35.24492187 14.10277344 -33.9765625 14.10742188 C-30.92833733 14.1192367 -27.88020811 14.13570972 -24.83203125 14.15625 C-24.8784375 13.55296875 -24.92484375 12.9496875 -24.97265625 12.328125 C-25.26392131 5.87868429 -25.26392131 5.87868429 -23.328125 2.640625 C-19.91701934 0.61211146 -16.76267352 0.48007606 -12.89453125 0.40625 C-12.14397461 0.37950195 -11.39341797 0.35275391 -10.62011719 0.32519531 C-9.09028309 0.27517526 -7.56011635 0.2344428 -6.02978516 0.203125 C-4.01917392 0.16024149 -2.00939881 0.08193267 0 0 Z " fill="#FFFDF7" transform="translate(164.83203125,119.84375)"/>
<path d="M0 0 C9.4909136 -0.2603222 9.4909136 -0.2603222 14.16796875 3.15625 C15.37069694 5.56170638 15.26868347 7.10621953 15.23046875 9.78125 C15.22144531 10.59851563 15.21242188 11.41578125 15.203125 12.2578125 C15.19152344 12.88429687 15.17992187 13.51078125 15.16796875 14.15625 C16.03075439 14.13530273 16.89354004 14.11435547 17.7824707 14.09277344 C20.98604385 14.02457098 24.18924691 13.97443686 27.39331055 13.93652344 C28.77950213 13.91641725 30.165609 13.88912755 31.55151367 13.85449219 C33.54438781 13.80593775 35.53788264 13.78541028 37.53125 13.765625 C38.73048096 13.74467773 39.92971191 13.72373047 41.1652832 13.70214844 C44.16796875 14.15625 44.16796875 14.15625 46.02026367 15.99316406 C48.25029088 20.19610835 48.29541365 23.85215954 48.24609375 28.484375 C48.23947723 29.59972626 48.23947723 29.59972626 48.23272705 30.73760986 C48.2218609 32.35674886 48.20838344 33.97587192 48.19262695 35.5949707 C48.16756617 38.19806671 48.15084788 40.80113128 48.13476562 43.40429688 C48.10187142 47.97286766 48.03848671 52.54038915 47.96044922 57.10839844 C47.9318042 58.99501838 47.91081295 60.88176806 47.89697266 62.76855469 C47.87560293 65.53902119 47.82911144 68.30808045 47.77734375 71.078125 C47.77611511 71.91768738 47.77488647 72.75724976 47.77362061 73.62225342 C47.64568377 78.71947113 47.01573141 81.47281705 43.16796875 85.15625 C37.2728381 89.0863371 29.32522878 88.31164219 22.40698242 88.36499023 C21.58303986 88.37477402 20.75909729 88.3845578 19.91018677 88.39463806 C17.2187862 88.42424439 14.52743318 88.44586228 11.8359375 88.46484375 C10.44915519 88.47470149 10.44915519 88.47470149 9.03435707 88.48475838 C4.153861 88.51717625 -0.72661462 88.54168614 -5.60717773 88.5612793 C-9.64135041 88.57917953 -13.67483555 88.61416255 -17.70874023 88.66381836 C-22.59509021 88.72387137 -27.48079701 88.75473 -32.3674984 88.76445198 C-34.22592375 88.77301906 -36.08433125 88.79186804 -37.94254494 88.8211956 C-40.53514309 88.85996023 -43.12520025 88.86116733 -45.71801758 88.85327148 C-46.86745598 88.8832724 -46.86745598 88.8832724 -48.04011536 88.91387939 C-50.18464661 88.88450623 -50.18464661 88.88450623 -53.83203125 88.15625 C-57.4770791 84.25120453 -58.33512854 81.11683774 -58.36547852 75.86303711 C-58.38131485 74.63834213 -58.39715118 73.41364716 -58.41346741 72.15184021 C-58.40850754 70.84231888 -58.40354767 69.53279755 -58.3984375 68.18359375 C-58.40367791 66.81408771 -58.40995592 65.44458529 -58.41722107 64.0750885 C-58.42760013 61.21289005 -58.42309889 58.35118957 -58.40844727 55.48901367 C-58.391236 51.82790304 -58.41479332 48.16835848 -58.44993687 44.50742245 C-58.47193145 41.68227313 -58.47046516 38.85749772 -58.46217155 36.03228951 C-58.46095727 34.02872241 -58.48086118 32.02517836 -58.50111389 30.02171326 C-58.39756723 19.92951229 -58.39756723 19.92951229 -55.41772461 16.85375977 C-51.53742976 14.30634308 -49.58807036 14.03607505 -44.94921875 14.05859375 C-43.78261719 14.06181641 -42.61601563 14.06503906 -41.4140625 14.06835938 C-40.19074219 14.07673828 -38.96742187 14.08511719 -37.70703125 14.09375 C-36.47597656 14.09826172 -35.24492187 14.10277344 -33.9765625 14.10742188 C-30.92833733 14.1192367 -27.88020811 14.13570972 -24.83203125 14.15625 C-24.8784375 13.55296875 -24.92484375 12.9496875 -24.97265625 12.328125 C-25.26392131 5.87868429 -25.26392131 5.87868429 -23.328125 2.640625 C-19.91701934 0.61211146 -16.76267352 0.48007606 -12.89453125 0.40625 C-12.14397461 0.37950195 -11.39341797 0.35275391 -10.62011719 0.32519531 C-9.09028309 0.27517526 -7.56011635 0.2344428 -6.02978516 0.203125 C-4.01917392 0.16024149 -2.00939881 0.08193267 0 0 Z M-40.83203125 19.15625 C-40.83203125 39.94625 -40.83203125 60.73625 -40.83203125 82.15625 C-17.07203125 82.15625 6.68796875 82.15625 31.16796875 82.15625 C31.16796875 61.36625 31.16796875 40.57625 31.16796875 19.15625 C7.40796875 19.15625 -16.35203125 19.15625 -40.83203125 19.15625 Z " fill="#FFD65E" transform="translate(164.83203125,119.84375)"/>
<path d="M0 0 C3.22807143 1.71912318 6.14122539 3.72295278 9 6 C9.56976563 6.44730469 10.13953125 6.89460937 10.7265625 7.35546875 C13.13580093 10.46678586 12.63986004 13.96310012 12.53515625 17.74609375 C10.92605557 27.52989572 2.2302889 35.69746935 -4 43 C-4.6290625 43.74121094 -5.258125 44.48242188 -5.90625 45.24609375 C-7.26349678 46.83701746 -8.63040305 48.41969583 -10 50 C-14.33372191 49.46629041 -17.32239724 46.75464319 -20.625 44.125 C-21.24093018 43.63539795 -21.85686035 43.1457959 -22.49145508 42.64135742 C-31.16901959 35.58682095 -39.90564722 28.1101316 -41.30078125 16.49609375 C-41.59560054 10.84398687 -40.91961257 7.35512507 -37 3 C-32.56482241 0.25396451 -28.06471974 0.447048 -23 1 C-19.625 2.5 -19.625 2.5 -17 4 C-12.96811865 4.38634919 -12.96811865 4.38634919 -10.1875 2 C-6.24628045 -0.47292207 -4.58325799 -0.77682339 0 0 Z " fill="#FFFCF6" transform="translate(174,146)"/>
<path d="M0 0 C3.22807143 1.71912318 6.14122539 3.72295278 9 6 C9.56976563 6.44730469 10.13953125 6.89460937 10.7265625 7.35546875 C13.13580093 10.46678586 12.63986004 13.96310012 12.53515625 17.74609375 C10.92605557 27.52989572 2.2302889 35.69746935 -4 43 C-4.6290625 43.74121094 -5.258125 44.48242188 -5.90625 45.24609375 C-7.26349678 46.83701746 -8.63040305 48.41969583 -10 50 C-14.33372191 49.46629041 -17.32239724 46.75464319 -20.625 44.125 C-21.24093018 43.63539795 -21.85686035 43.1457959 -22.49145508 42.64135742 C-31.16901959 35.58682095 -39.90564722 28.1101316 -41.30078125 16.49609375 C-41.59560054 10.84398687 -40.91961257 7.35512507 -37 3 C-32.56482241 0.25396451 -28.06471974 0.447048 -23 1 C-19.625 2.5 -19.625 2.5 -17 4 C-12.96811865 4.38634919 -12.96811865 4.38634919 -10.1875 2 C-6.24628045 -0.47292207 -4.58325799 -0.77682339 0 0 Z M-33 7.75 C-36.07163736 12.74141071 -36.28086505 17.31234924 -35 23 C-33.44007193 25.22199056 -31.83500961 26.48389294 -29.62890625 28.0625 C-27.45697039 29.6632135 -25.63714856 31.25087742 -23.71484375 33.125 C-23.14338623 33.67994141 -22.57192871 34.23488281 -21.9831543 34.80664062 C-20.83929836 35.9242325 -19.70128419 37.04783889 -18.56958008 38.17773438 C-16.79753411 39.92034961 -16.79753411 39.92034961 -14 42 C-7.97226177 41.30523631 -4.59066972 35.39932475 -1 31 C5.86162869 22.43650848 5.86162869 22.43650848 7 12 C4.10650339 8.05900611 1.17512862 6.20260838 -3.625 5.375 C-7.50101089 6.09277979 -9.27172911 7.18905424 -12 10 C-12 10.66 -12 11.32 -12 12 C-13.32 12 -14.64 12 -16 12 C-16 11.34 -16 10.68 -16 10 C-17.98 9.34 -19.96 8.68 -22 8 C-22 7.34 -22 6.68 -22 6 C-27.78806224 5.50672799 -27.78806224 5.50672799 -33 7.75 Z " fill="#FFD65F" transform="translate(174,146)"/>
<path d="M0 0 C3.84478875 1.45836815 5.1822915 3.36458299 7 7 C7.33333333 8.33333333 7.66666667 9.66666667 8 11 C8.66 11.33 9.32 11.66 10 12 C10.18175781 11.07767578 10.18175781 11.07767578 10.3671875 10.13671875 C10.53476563 9.32847656 10.70234375 8.52023438 10.875 7.6875 C11.03742188 6.88699219 11.19984375 6.08648437 11.3671875 5.26171875 C12 3 12 3 14 0 C16.375 -0.5 16.375 -0.5 19 0 C21.9354259 2.82656954 22.92895812 4.49517055 23.50170898 8.56518555 C23.52117872 9.92222491 23.5181951 11.27971969 23.49609375 12.63671875 C23.49754898 13.35737015 23.49900421 14.07802155 23.50050354 14.82051086 C23.49885029 16.33586696 23.48735327 17.85124085 23.46655273 19.36645508 C23.43745637 21.69098593 23.44598113 24.01325388 23.45898438 26.33789062 C23.45275061 27.81251111 23.4443625 29.28712441 23.43359375 30.76171875 C23.43652939 31.45754562 23.43946503 32.1533725 23.44248962 32.87028503 C23.40405273 34.82299805 23.40405273 34.82299805 23 38 C22.01 38.66 21.02 39.32 20 40 C18.68 39.67 17.36 39.34 16 39 C15.505 27.12 15.505 27.12 15 15 C14.01 16.98 13.02 18.96 12 21 C9.3125 21.875 9.3125 21.875 7 22 C6.01 20.35 5.02 18.7 4 17 C3.98018066 17.62567871 3.96036133 18.25135742 3.93994141 18.89599609 C3.84485774 21.72276519 3.73511254 24.54877815 3.625 27.375 C3.5940625 28.35984375 3.563125 29.3446875 3.53125 30.359375 C3.47324219 31.77089844 3.47324219 31.77089844 3.4140625 33.2109375 C3.3826416 34.08024902 3.3512207 34.94956055 3.31884766 35.84521484 C3 38 3 38 1 40 C-0.32 40 -1.64 40 -3 40 C-4.78862264 34.63413209 -4.1846699 28.86491202 -4.1875 23.25 C-4.19974609 21.98671875 -4.21199219 20.7234375 -4.22460938 19.421875 C-4.243378 7.51005124 -4.243378 7.51005124 -2 2 C-1.34 1.34 -0.68 0.68 0 0 Z " fill="#747474" transform="translate(108,58)"/>
<path d="M0 0 C3.65821514 0.96000874 5.03081978 3.44393987 6.96484375 6.515625 C10.63988834 14.21571842 9.73310807 24.59710149 6.96484375 32.515625 C4.97284673 35.81029037 2.68920393 38.79126482 -0.03515625 41.515625 C-2.34765625 41.890625 -2.34765625 41.890625 -5.03515625 41.515625 C-10.03234417 36.81238931 -11.98541549 31.14660379 -12.2890625 24.46484375 C-12.31988444 22.96112653 -12.33925396 21.4571346 -12.34765625 19.953125 C-12.35313477 19.23286133 -12.35861328 18.51259766 -12.36425781 17.77050781 C-12.28932417 12.12464552 -11.61141959 6.88002001 -8.41015625 2.078125 C-5.61349263 0.23821473 -3.34407835 -0.17436535 0 0 Z " fill="#7A7A7A" transform="translate(188.03515625,57.484375)"/>
<path d="M0 0 C3.10223835 -0.34469315 4.55790961 -0.31141337 7.14746094 1.51269531 C9.69568847 4.93406354 9.50408049 7.9530688 9.390625 12.046875 C9.38496521 12.81807678 9.37930542 13.58927856 9.37347412 14.3838501 C9.35113589 16.83987279 9.30094763 19.29442055 9.25 21.75 C9.22993154 23.41794763 9.21168137 25.08591821 9.1953125 26.75390625 C9.15127992 30.83650323 9.08227283 34.91800181 9 39 C6.525 39.495 6.525 39.495 4 40 C1.87719437 36.81579155 1.71980463 35.79462745 1.5859375 32.11328125 C1.54726562 31.17548828 1.50859375 30.23769531 1.46875 29.27148438 C1.4378125 28.29501953 1.406875 27.31855469 1.375 26.3125 C1.33632812 25.32443359 1.29765625 24.33636719 1.2578125 23.31835938 C1.16354133 20.87909293 1.07793782 18.43983405 1 16 C0.56042969 16.80824219 0.12085938 17.61648437 -0.33203125 18.44921875 C-2 21 -2 21 -4.6875 21.8125 C-5.450625 21.874375 -6.21375 21.93625 -7 22 C-7.99 20.68 -8.98 19.36 -10 18 C-10.01981934 18.59538574 -10.03963867 19.19077148 -10.06005859 19.80419922 C-10.15516126 22.49492153 -10.26489842 25.18485148 -10.375 27.875 C-10.4059375 28.81214844 -10.436875 29.74929687 -10.46875 30.71484375 C-10.50742188 31.61074219 -10.54609375 32.50664063 -10.5859375 33.4296875 C-10.6173584 34.25710449 -10.6487793 35.08452148 -10.68115234 35.93701172 C-11 38 -11 38 -13 40 C-14.32 40 -15.64 40 -17 40 C-17.02483101 35.55257542 -17.04292183 31.10518822 -17.05493164 26.65771484 C-17.05994162 25.14663998 -17.06675144 23.63556991 -17.07543945 22.12451172 C-17.08765176 19.94497488 -17.09326178 17.76550247 -17.09765625 15.5859375 C-17.10289307 14.2767334 -17.10812988 12.9675293 -17.11352539 11.61865234 C-17.00972117 8.30986487 -16.63432368 5.24404982 -16 2 C-14.02 1.67 -12.04 1.34 -10 1 C-9.73445312 1.63808594 -9.46890625 2.27617188 -9.1953125 2.93359375 C-8.84210938 3.75988281 -8.48890625 4.58617187 -8.125 5.4375 C-7.60292969 6.67306641 -7.60292969 6.67306641 -7.0703125 7.93359375 C-6.1755063 10.15746715 -6.1755063 10.15746715 -4 11 C-3.8453125 9.948125 -3.8453125 9.948125 -3.6875 8.875 C-2.90640997 5.60862353 -1.57941257 2.9528148 0 0 Z " fill="#737373" transform="translate(216,58)"/>
<path d="M0 0 C4.56128366 0.78945294 7.12887054 3.24361302 10.25 6.5625 C12.13309716 10.32869432 11.89118658 14.47111894 11.25 18.5625 C9.72820028 21.50078459 8.00160445 23.71111182 5.25 25.5625 C3.27 25.8925 1.29 26.2225 -0.75 26.5625 C-0.75 31.8425 -0.75 37.1225 -0.75 42.5625 C-2.4 42.5625 -4.05 42.5625 -5.75 42.5625 C-7.59338493 40.71911507 -6.88236158 38.1335491 -6.8894043 35.68164062 C-6.88465088 34.85857422 -6.87989746 34.03550781 -6.875 33.1875 C-6.87089111 32.34638672 -6.86678223 31.50527344 -6.86254883 30.63867188 C-6.80908631 24.44391847 -6.68126613 18.25271865 -6.4375 12.0625 C-6.41510254 11.25635254 -6.39270508 10.45020508 -6.36962891 9.61962891 C-6.10338946 4.00450642 -6.10338946 4.00450642 -4.38989258 1.86132812 C-2.75 0.5625 -2.75 0.5625 0 0 Z " fill="#717171" transform="translate(139.75,56.4375)"/>
<path d="M0 0 C2 2 2 2 2 6 C1.05125 6.28875 0.1025 6.5775 -0.875 6.875 C-4.05211578 7.76825109 -4.05211578 7.76825109 -6 10 C-6.57315504 12.44909874 -6.57315504 12.44909874 -6 15 C-3.88326554 16.84655792 -3.88326554 16.84655792 -1.125 18.1875 C3.90092879 20.90092879 3.90092879 20.90092879 6 23 C7.09815097 27.20269808 7.48257457 30.83166157 5.8125 34.875 C3.22599757 37.90745112 1.35889292 39.81657904 -2.69140625 40.36328125 C-4.11259766 40.33814453 -4.11259766 40.33814453 -5.5625 40.3125 C-6.51253906 40.30863281 -7.46257812 40.30476563 -8.44140625 40.30078125 C-11 40 -11 40 -14 38 C-14 36.68 -14 35.36 -14 34 C-13.14535156 33.93941406 -12.29070313 33.87882812 -11.41015625 33.81640625 C-10.30542969 33.73261719 -9.20070313 33.64882812 -8.0625 33.5625 C-6.96035156 33.48128906 -5.85820313 33.40007812 -4.72265625 33.31640625 C-2.08890097 33.29581916 -2.08890097 33.29581916 -1 32 C-0.49940084 29.58517587 -0.49940084 29.58517587 -1 27 C-3.18219466 25.38885248 -3.18219466 25.38885248 -6 24 C-11.59464627 19.81070746 -11.59464627 19.81070746 -13 17 C-13.63707113 11.85792584 -13.92622985 8.20159548 -10.6875 4 C-4.66901408 -0.47887324 -4.66901408 -0.47887324 0 0 Z " fill="#707070" transform="translate(76,58)"/>
<path d="M0 0 C0.99 0 1.98 0 3 0 C3 20.13 3 40.26 3 61 C-1.06791674 58.96604163 -1.88743141 58.1882849 -3.44610596 54.09420776 C-4.48728575 50.15763031 -4.42640247 46.24083104 -4.3984375 42.19140625 C-4.40130768 41.26585434 -4.40417786 40.34030243 -4.40713501 39.38670349 C-4.40916794 37.43772771 -4.40369227 35.48873117 -4.39111328 33.53979492 C-4.37506705 30.57488835 -4.39097892 27.61134862 -4.41015625 24.64648438 C-4.40817332 22.74478869 -4.40432863 20.84309385 -4.3984375 18.94140625 C-4.40451019 18.0640834 -4.41058289 17.18676056 -4.4168396 16.28285217 C-4.35633661 10.92324714 -4.04643896 4.04643896 0 0 Z " fill="#FFFCF4" transform="translate(116,140)"/>
<path d="M0 0 C3.47914941 -0.02887814 6.95826831 -0.04675687 10.4375 -0.0625 C11.92733398 -0.07506836 11.92733398 -0.07506836 13.44726562 -0.08789062 C14.39150391 -0.09111328 15.33574219 -0.09433594 16.30859375 -0.09765625 C17.62041626 -0.10551147 17.62041626 -0.10551147 18.95874023 -0.11352539 C21 0 21 0 22 1 C22.04080783 2.99958364 22.04254356 5.00045254 22 7 C19.36 7 16.72 7 14 7 C14 17.56 14 28.12 14 39 C11.03 39.495 11.03 39.495 8 40 C6.52094762 37.04189524 6.87809097 34.0452845 6.90234375 30.8046875 C6.9037587 30.09724396 6.90517365 29.38980042 6.90663147 28.66091919 C6.912234 26.39890331 6.92478682 24.13698602 6.9375 21.875 C6.94251468 20.34244935 6.94707764 18.80989714 6.95117188 17.27734375 C6.96220423 13.51819112 6.97947048 9.75911228 7 6 C4.69 6 2.38 6 0 6 C0 4.02 0 2.04 0 0 Z " fill="#6A6A6A" transform="translate(153,58)"/>
<path d="M0 0 C0.66 0.33 1.32 0.66 2 1 C2 2.32 2 3.64 2 5 C1.15695312 5.08636719 0.31390625 5.17273437 -0.5546875 5.26171875 C-1.65039062 5.40222656 -2.74609375 5.54273438 -3.875 5.6875 C-4.96554688 5.81511719 -6.05609375 5.94273438 -7.1796875 6.07421875 C-10.12482074 6.71534164 -10.12482074 6.71534164 -11.36328125 9.08984375 C-12.1546497 12.70683453 -12.32971552 16.19087949 -12.3125 19.875 C-12.32861328 20.55691406 -12.34472656 21.23882812 -12.36132812 21.94140625 C-12.36613374 26.98730243 -11.2362765 30.48024327 -9 35 C-5.37 35.33 -1.74 35.66 2 36 C2.33 37.65 2.66 39.3 3 41 C1.36987162 42.63012838 -0.44437445 42.20976456 -2.6875 42.25 C-7.20993948 42.18548588 -10.23139196 41.69186289 -14 39 C-19.10181754 32.65719981 -19.19936104 26.79839971 -19.25 19 C-19.270625 18.2059375 -19.29125 17.411875 -19.3125 16.59375 C-19.35551646 10.1412813 -17.82540105 7.00348896 -13.4375 2.1875 C-9.45095445 -1.01579479 -4.87053939 -0.61319741 0 0 Z " fill="#757575" transform="translate(255,57)"/>
<path d="M0 0 C1.98 0 3.96 0 6 0 C6.66 2.31 7.32 4.62 8 7 C8.66 7 9.32 7 10 7 C10.309375 6.21625 10.61875 5.4325 10.9375 4.625 C12 2 12 2 13 0 C14.65 0.33 16.3 0.66 18 1 C18.33 1.99 18.66 2.98 19 4 C18.05607981 5.69905634 17.04349839 7.36021682 16 9 C12.55466839 15.35929367 12.4941862 21.2323411 12.375 28.375 C12.32425147 30.54957466 12.26977656 32.72406671 12.2109375 34.8984375 C12.19337402 35.85411621 12.17581055 36.80979492 12.15771484 37.79443359 C12 40 12 40 11 41 C9.33382885 41.04063832 7.66611905 41.042721 6 41 C5.99589111 40.33057373 5.99178223 39.66114746 5.98754883 38.97143555 C6.35111186 22.91022745 6.35111186 22.91022745 1.05859375 8.1484375 C-0.32300606 5.34445265 -0.1722238 3.08236438 0 0 Z " fill="#707070" transform="translate(84,58)"/>
<path d="M0 0 C1.98 0.99 1.98 0.99 4 2 C4 2.99 4 3.98 4 5 C4.66 5 5.32 5 6 5 C6.09953497 10.94070658 6.17178154 16.88091827 6.21972656 22.82226562 C6.23973216 24.83960435 6.2669456 26.8568859 6.30175781 28.87402344 C6.35076577 31.78855573 6.37307964 34.70231559 6.390625 37.6171875 C6.41127014 38.50614716 6.43191528 39.39510681 6.45318604 40.31100464 C6.4555098 46.9266834 4.81744079 52.03817071 2 58 C1.34 58 0.68 58 0 58 C0 38.86 0 19.72 0 0 Z " fill="#FFFBEF" transform="translate(202,141)"/>
<path d="M0 0 C1.65 0 3.3 0 5 0 C5 1.32 5 2.64 5 4 C5.9590625 4.2165625 5.9590625 4.2165625 6.9375 4.4375 C9 5 9 5 10 6 C10.09114837 8.4051969 10.11549474 10.77845291 10.09375 13.18359375 C10.09016479 13.93515244 10.08657959 14.68671112 10.08288574 15.46104431 C10.01516765 25.33039191 9.75312563 35.19654652 9.5 45.0625 C9.45163102 47.00845878 9.40345287 48.95442232 9.35546875 50.90039062 C9.23917072 55.60031791 9.12031964 60.30017402 9 65 C7.02 65 5.04 65 3 65 C3 63 3 63 4.5 61.375 C5.2425 60.694375 5.2425 60.694375 6 60 C5.34 60 4.68 60 4 60 C4.33 43.83 4.66 27.66 5 11 C4.34 11 3.68 11 3 11 C2.49384702 9.73160474 1.99530901 8.46016898 1.5 7.1875 C1.2215625 6.47980469 0.943125 5.77210938 0.65625 5.04296875 C0 3 0 3 0 0 Z " fill="#FFD457" transform="translate(203,135)"/>
<path d="M0 0 C0.78169033 4.10553071 1.10237475 7.92148505 1.02172852 12.09716797 C0.99158409 13.86832474 0.99158409 13.86832474 0.96083069 15.67526245 C0.93379562 16.93484772 0.90676056 18.19443298 0.87890625 19.4921875 C0.85529526 20.79326447 0.83168427 22.09434143 0.80735779 23.43484497 C0.744823 26.87738555 0.67567146 30.31976199 0.60510254 33.762146 C0.53414085 37.28145943 0.46949105 40.80088833 0.40429688 44.3203125 C0.27567971 51.2136671 0.14006619 58.10686878 0 65 C-1.32 65 -2.64 65 -4 65 C-4.05066736 57.24042546 -4.08571984 49.48089352 -4.10986328 41.72119141 C-4.11992719 39.08087571 -4.13357952 36.44057117 -4.15087891 33.80029297 C-4.17510971 30.00745897 -4.18647923 26.21477221 -4.1953125 22.421875 C-4.20563507 21.23946228 -4.21595764 20.05704956 -4.22659302 18.83880615 C-4.22674408 17.73796692 -4.22689514 16.63712769 -4.22705078 15.50292969 C-4.231492 14.53474304 -4.23593323 13.5665564 -4.24050903 12.56903076 C-3.98984485 9.89152633 -3.2875792 8.32627612 -2 6 C-2 5.34 -2 4.68 -2 4 C-4.31 4 -6.62 4 -9 4 C-8.67 3.01 -8.34 2.02 -8 1 C-5.17884816 -0.07009208 -3.09455459 0 0 0 Z " fill="#FFD352" transform="translate(201,134)"/>
<path d="M0 0 C2.125 0.375 2.125 0.375 4 1 C4.19208189 6.51722958 4.37083263 12.03466668 4.53710938 17.55273438 C4.5955953 19.43078256 4.65775641 21.30871997 4.72363281 23.18652344 C4.81756025 25.88195632 4.89836718 28.57750816 4.9765625 31.2734375 C5.00875885 32.11619232 5.0409552 32.95894714 5.0741272 33.82723999 C5.12728029 35.88428841 5.073058 37.94356231 5 40 C4.34 40.66 3.68 41.32 3 42 C2.01 42 1.02 42 0 42 C-2.13466669 34.40160311 -2.3081441 27.03038435 -2.26074219 19.1862793 C-2.24989897 17.04252641 -2.26075127 14.89958883 -2.2734375 12.75585938 C-2.27211794 11.39062315 -2.26955977 10.02538744 -2.265625 8.66015625 C-2.26336914 7.42918213 -2.26111328 6.19820801 -2.25878906 4.92993164 C-2 2 -2 2 0 0 Z " fill="#707070" transform="translate(229,57)"/>
<path d="M0 0 C1.52173828 0.0009668 1.52173828 0.0009668 3.07421875 0.00195312 C4.13253906 0.01806641 5.19085938 0.03417969 6.28125 0.05078125 C7.86873047 0.04594727 7.86873047 0.04594727 9.48828125 0.04101562 C17.38058537 0.0961715 17.38058537 0.0961715 20.78125 2.36328125 C20.78125 4.34328125 20.78125 6.32328125 20.78125 8.36328125 C11.21125 8.36328125 1.64125 8.36328125 -8.21875 8.36328125 C-8.21875 3.36328125 -8.21875 3.36328125 -7.04492188 1.57348633 C-4.59201776 -0.05205454 -2.93138921 -0.00940852 0 0 Z " fill="#FFFBF1" transform="translate(153.21875,125.63671875)"/>
<path d="M0 0 C2.4375 0.375 2.4375 0.375 5 1 C7.78355203 6.56710406 6.72064862 16.88696555 5.328125 22.90234375 C4.5 25.0625 4.5 25.0625 3 28 C2.01 28 1.02 28 0 28 C-2.09126488 22.83822715 -2.3035695 18.3480169 -2.25 12.875 C-2.25773438 12.07707031 -2.26546875 11.27914062 -2.2734375 10.45703125 C-2.24955062 3.30291163 -2.24955062 3.30291163 0 0 Z " fill="#F9F9F9" transform="translate(184,64)"/>
<path d="M0 0 C2.125 0.375 2.125 0.375 4 1 C4 2.98 4 4.96 4 7 C6.31 7 8.62 7 11 7 C11.625 8.875 11.625 8.875 12 11 C10 13 10 13 6.875 13.125 C5.92625 13.08375 4.9775 13.0425 4 13 C3.67 14.65 3.34 16.3 3 18 C1.35 17.67 -0.3 17.34 -2 17 C-2 15.68 -2 14.36 -2 13 C-3.65 13 -5.3 13 -7 13 C-7.38218767 11.34385343 -7.71395102 9.67542976 -8 8 C-7 7 -7 7 -4.4375 6.9375 C-3.2309375 6.9684375 -3.2309375 6.9684375 -2 7 C-2.04125 6.21625 -2.0825 5.4325 -2.125 4.625 C-2 2 -2 2 0 0 Z " fill="#FFD867" transform="translate(159,161)"/>
<path d="M0 0 C2.98174986 0.79202731 4.16411059 2.07798186 6 4.53125 C6.390625 7.546875 6.390625 7.546875 6.25 10.78125 C6.21390625 11.85890625 6.1778125 12.9365625 6.140625 14.046875 C6.07101563 15.27664062 6.07101563 15.27664062 6 16.53125 C3 15.53125 3 15.53125 2.05078125 13.68359375 C1.68533203 12.58724609 1.68533203 12.58724609 1.3125 11.46875 C1.06113281 10.73527344 0.80976563 10.00179687 0.55078125 9.24609375 C0.36902344 8.68019531 0.18726563 8.11429687 0 7.53125 C-1.32 7.53125 -2.64 7.53125 -4 7.53125 C-4.99 10.50125 -5.98 13.47125 -7 16.53125 C-7.33 15.87125 -7.66 15.21125 -8 14.53125 C-8.66 14.53125 -9.32 14.53125 -10 14.53125 C-9.67 15.19125 -9.34 15.85125 -9 16.53125 C-8.960008 18.53085012 -8.95653201 20.53172242 -9 22.53125 C-9.99 22.20125 -10.98 21.87125 -12 21.53125 C-12.25402312 14.51738935 -12.41890844 8.15961266 -8.375 2.09375 C-5.43872624 0.16199095 -3.44625972 0.05384781 0 0 Z " fill="#6E6E6E" transform="translate(188,57.46875)"/>
<path d="M0 0 C0.33 0 0.66 0 1 0 C1 1.98 1 3.96 1 6 C-1.64 6 -4.28 6 -7 6 C-7 16.56 -7 27.12 -7 38 C-9.97 38.495 -9.97 38.495 -13 39 C-14.48679725 36.02640551 -14.11112605 33.33700821 -14.09765625 30.0234375 C-14.09553383 28.99556625 -14.09553383 28.99556625 -14.09336853 27.94692993 C-14.08776675 25.75624239 -14.07521406 23.5656567 -14.0625 21.375 C-14.05748522 19.89062648 -14.05292228 18.40625135 -14.04882812 16.921875 C-14.03779677 13.28121685 -14.02053099 9.64061836 -14 6 C-13.67 6 -13.34 6 -13 6 C-12.67 11.61 -12.34 17.22 -12 23 C-10.68 23 -9.36 23 -8 23 C-8 17.06 -8 11.12 -8 5 C-5.36 5 -2.72 5 0 5 C0 3.35 0 1.7 0 0 Z " fill="#999999" transform="translate(174,59)"/>
<path d="M0 0 C5.61 0 11.22 0 17 0 C15.02 0.99 15.02 0.99 13 2 C12.67 2.66 12.34 3.32 12 4 C12.763125 3.773125 13.52625 3.54625 14.3125 3.3125 C15.199375 3.209375 16.08625 3.10625 17 3 C18.8125 4.4375 18.8125 4.4375 20 6 C19.67657623 6.54082214 19.35315247 7.08164429 19.01992798 7.63885498 C17.78442553 10.49905739 17.72176198 12.66491509 17.68115234 15.77832031 C17.66128265 16.9392218 17.64141296 18.10012329 17.62094116 19.29620361 C17.60361435 21.1682547 17.60361435 21.1682547 17.5859375 23.078125 C17.56657135 24.35983582 17.5472052 25.64154663 17.5272522 26.96209717 C17.47599373 30.36174365 17.43633471 33.76142965 17.39910889 37.16125488 C17.35902959 40.63364387 17.30795522 44.10586933 17.2578125 47.578125 C17.16112787 54.38529709 17.07669935 61.1925742 17 68 C16.67 68 16.34 68 16 68 C16 47.21 16 26.42 16 5 C11.38 5 6.76 5 2 5 C2 4.34 2 3.68 2 3 C3.98 2.67 5.96 2.34 8 2 C8 2.66 8 3.32 8 4 C8.66 4 9.32 4 10 4 C10 3.01 10 2.02 10 1 C6.7 1 3.4 1 0 1 C0 0.67 0 0.34 0 0 Z " fill="#FFDF84" transform="translate(180,134)"/>
<path d="M0 0 C0.99 0.495 0.99 0.495 2 1 C2 1.66 2 2.32 2 3 C2.99 3 3.98 3 5 3 C5 10.26 5 17.52 5 25 C3.35 25.33 1.7 25.66 0 26 C0 17.42 0 8.84 0 0 Z " fill="#696969" transform="translate(199,72)"/>
<path d="M0 0 C23.76 0 47.52 0 72 0 C72.495 2.475 72.495 2.475 73 5 C72 6 72 6 69.49609375 6.09765625 C67.98208984 6.08025391 67.98208984 6.08025391 66.4375 6.0625 C65.42558594 6.05347656 64.41367188 6.04445312 63.37109375 6.03515625 C62.58863281 6.02355469 61.80617187 6.01195312 61 6 C61 5.67 61 5.34 61 5 C65.455 4.505 65.455 4.505 70 4 C70 3.01 70 2.02 70 1 C46.9 1 23.8 1 0 1 C0 0.67 0 0.34 0 0 Z " fill="#FFDD7B" transform="translate(124,202)"/>
<path d="M0 0 C0.33 0 0.66 0 1 0 C1.04898438 1.18335938 1.09796875 2.36671875 1.1484375 3.5859375 C1.52942265 11.90777938 2.0334298 19.87150984 4 28 C3.67 28 3.34 28 3 28 C2.67 31.3 2.34 34.6 2 38 C1.67 38 1.34 38 1 38 C-0.06346444 29.78242924 -0.11790325 21.65139345 -0.0625 13.375 C-0.05798828 12.08464844 -0.05347656 10.79429688 -0.04882812 9.46484375 C-0.03714295 6.30984625 -0.02076044 3.15494863 0 0 Z " fill="#DDDDDD" transform="translate(233,59)"/>
<path d="M0 0 C0.99 1.485 0.99 1.485 2 3 C2.99 3.33 3.98 3.66 5 4 C5 6.64 5 9.28 5 12 C3.35 12.33 1.7 12.66 0 13 C0 8.71 0 4.42 0 0 Z " fill="#6B6B6B" transform="translate(161,85)"/>
<path d="M0 0 C4 2 4 2 5 3 C5.4664311 8.3639576 5.4664311 8.3639576 3.625 10.875 C2 12 2 12 0 12 C0 8.04 0 4.08 0 0 Z " fill="#EEEEEE" transform="translate(140,64)"/>
<path d="M0 0 C1.65 0 3.3 0 5 0 C3.68 0.33 2.36 0.66 1 1 C1.350625 1.9075 1.70125 2.815 2.0625 3.75 C2.96468779 6.87758436 3.13381507 8.05208081 2 11 C1.01 9.68 0.02 8.36 -1 7 C-1.33 8.65 -1.66 10.3 -2 12 C-3.32 11.67 -4.64 11.34 -6 11 C-5.34 11 -4.68 11 -4 11 C-3.896875 10.29875 -3.79375 9.5975 -3.6875 8.875 C-2.90640997 5.60862353 -1.57941257 2.9528148 0 0 Z " fill="#898989" transform="translate(216,58)"/>
<path d="M0 0 C0.1953125 6.0546875 0.1953125 6.0546875 0 8 C-0.66 8.66 -1.32 9.32 -2 10 C-2.66 9.67 -3.32 9.34 -4 9 C-4.59355614 6.35139573 -4.74209269 3.70802678 -5 1 C-3 0 -3 0 0 0 Z " fill="#6A6A6A" transform="translate(205,59)"/>
<path d="M0 0 C0.33 0 0.66 0 1 0 C1 5.28 1 10.56 1 16 C0.67 16 0.34 16 0 16 C-0.99 11.38 -1.98 6.76 -3 2 C-2.34 2 -1.68 2 -1 2 C-0.67 1.34 -0.34 0.68 0 0 Z " fill="#858585" transform="translate(181,70)"/>
<path d="M0 0 C0.66 0.33 1.32 0.66 2 1 C2 2.98 2 4.96 2 7 C1.01 7 0.02 7 -1 7 C-2.70532323 8.94009522 -2.70532323 8.94009522 -4 11 C-3.39301257 6.87248551 -1.96189209 3.6678852 0 0 Z " fill="#E4E4E4" transform="translate(103,60)"/>
<path d="M0 0 C0.99 0.33 1.98 0.66 3 1 C3.33 2.65 3.66 4.3 4 6 C2.68 6 1.36 6 0 6 C-0.38218767 4.34385343 -0.71395102 2.67542976 -1 1 C-0.67 0.67 -0.34 0.34 0 0 Z " fill="#FFD458" transform="translate(197,201)"/>
<path d="M0 0 C2.15377564 2.62198774 3.40072174 4.64404172 4 8 C2.68 8 1.36 8 0 8 C-0.79953138 4.71303767 -1.09658936 3.28976808 0 0 Z " fill="#878787" transform="translate(205,59)"/>
<path d="M0 0 C1.32 0 2.64 0 4 0 C4 1.65 4 3.3 4 5 C2.68 5 1.36 5 0 5 C-0.5625 3.0625 -0.5625 3.0625 -1 1 C-0.67 0.67 -0.34 0.34 0 0 Z " fill="#717171" transform="translate(162,77)"/>
<path d="M0 0 C0.99 0.66 1.98 1.32 3 2 C2.34 3.65 1.68 5.3 1 7 C-2 3.25 -2 3.25 -2 1 C-1.34 0.67 -0.68 0.34 0 0 Z " fill="#787878" transform="translate(207,66)"/>
<path d="M0 0 C2 2 2 2 2.125 5.125 C2.08375 6.07375 2.0425 7.0225 2 8 C1.01 7.67 0.02 7.34 -1 7 C-1.04254356 5.00045254 -1.04080783 2.99958364 -1 1 C-0.67 0.67 -0.34 0.34 0 0 Z " fill="#686868" transform="translate(177,72)"/>
<path d="M0 0 C0.33 0 0.66 0 1 0 C1 1.65 1 3.3 1 5 C1.66 5 2.32 5 3 5 C2.67 5.99 2.34 6.98 2 8 C0.68 8.33 -0.64 8.66 -2 9 C-1.34 6.03 -0.68 3.06 0 0 Z " fill="#FFDF82" transform="translate(206,190)"/>
<path d="M0 0 C1.65 0.33 3.3 0.66 5 1 C4.67 1.66 4.34 2.32 4 3 C3.01 3 2.02 3 1 3 C0.34 4.65 -0.32 6.3 -1 8 C-1.93065133 5.39417629 -2.14917407 4.35801776 -1.0625 1.75 C-0.711875 1.1725 -0.36125 0.595 0 0 Z " fill="#D1D1D1" transform="translate(184,64)"/>
</svg>
